<?xml version="1.0" encoding="UTF-8"?><svg xmlns="http://www.w3.org/2000/svg" xmlns:xlink="http://www.w3.org/1999/xlink" fill-opacity="1" color-rendering="auto" color-interpolation="auto" text-rendering="auto" stroke="black" stroke-linecap="square" width="899" stroke-miterlimit="10" shape-rendering="auto" stroke-opacity="1" fill="black" stroke-dasharray="none" font-weight="normal" stroke-width="1" height="864" font-family="'Dialog'" font-style="normal" stroke-linejoin="miter" font-size="12px" stroke-dashoffset="0" image-rendering="auto">
  <!--Generated by ySVG 2.5-->
  <defs id="genericDefs"/>
  <g>
    <defs id="defs1">
      <linearGradient x1="631.5455" gradientUnits="userSpaceOnUse" x2="749.5455" y1="427.7344" y2="497.7344" id="linearGradient1" spreadMethod="reflect">
        <stop stop-opacity="1" stop-color="rgb(232,238,247)" offset="0%"/>
        <stop stop-opacity="1" stop-color="rgb(183,201,227)" offset="100%"/>
      </linearGradient>
      <linearGradient x1="779.5455" gradientUnits="userSpaceOnUse" x2="859.5455" y1="442.7344" y2="482.7344" id="linearGradient2" spreadMethod="reflect">
        <stop stop-opacity="1" stop-color="rgb(232,238,247)" offset="0%"/>
        <stop stop-opacity="1" stop-color="rgb(183,201,227)" offset="100%"/>
      </linearGradient>
      <linearGradient x1="650.5455" gradientUnits="userSpaceOnUse" x2="730.5455" y1="552.9011" y2="592.9011" id="linearGradient3" spreadMethod="reflect">
        <stop stop-opacity="1" stop-color="rgb(232,238,247)" offset="0%"/>
        <stop stop-opacity="1" stop-color="rgb(183,201,227)" offset="100%"/>
      </linearGradient>
      <clipPath clipPathUnits="userSpaceOnUse" id="clipPath1">
        <path d="M0 0 L899 0 L899 864 L0 864 L0 0 Z"/>
      </clipPath>
      <clipPath clipPathUnits="userSpaceOnUse" id="clipPath2">
        <path d="M26 -156 L925 -156 L925 708 L26 708 L26 -156 Z"/>
      </clipPath>
      <clipPath clipPathUnits="userSpaceOnUse" id="clipPath3">
        <path d="M22 -160 L921 -160 L921 704 L22 704 L22 -160 Z"/>
      </clipPath>
    </defs>
    <g fill="white" text-rendering="geometricPrecision" shape-rendering="geometricPrecision" transform="translate(-26,156)" stroke="white">
      <rect x="26" width="899" height="864" y="-156" clip-path="url(#clipPath2)" stroke="none"/>
    </g>
    <g fill="rgb(210,210,210)" text-rendering="geometricPrecision" shape-rendering="geometricPrecision" transform="matrix(1,0,0,1,-26,156) translate(4,4)" stroke="rgb(210,210,210)">
      <rect x="41.5" width="515.9952" height="506.4756" y="-140.0824" clip-path="url(#clipPath3)" stroke="none"/>
    </g>
    <g fill="rgb(204,255,255)" text-rendering="geometricPrecision" shape-rendering="geometricPrecision" transform="matrix(1,0,0,1,-26,156)" stroke="rgb(204,255,255)">
      <rect x="41.5" width="515.9952" height="506.4756" y="-140.0824" clip-path="url(#clipPath2)" stroke="none"/>
      <rect x="41.5" y="-140.0824" clip-path="url(#clipPath2)" fill="rgb(153,204,255)" width="515.9952" height="20.7578" stroke="none"/>
    </g>
    <g font-size="15px" stroke-linecap="butt" transform="matrix(1,0,0,1,-26,156)" text-rendering="geometricPrecision" font-family="sans-serif" shape-rendering="geometricPrecision" stroke-miterlimit="1.45">
      <text x="522.9903" xml:space="preserve" y="-124.5033" clip-path="url(#clipPath2)" stroke="none">ROS</text>
      <rect fill="none" x="41.5" width="515.9952" height="506.4756" y="-140.0824" clip-path="url(#clipPath2)"/>
    </g>
    <g fill="rgb(210,210,210)" text-rendering="geometricPrecision" shape-rendering="geometricPrecision" transform="matrix(1,0,0,1,-26,156) translate(4,4)" stroke="rgb(210,210,210)">
      <rect x="62.5" width="272.3701" height="451.7178" y="-104.3246" clip-path="url(#clipPath3)" stroke="none"/>
    </g>
    <g fill="rgb(222,220,196)" text-rendering="geometricPrecision" shape-rendering="geometricPrecision" transform="matrix(1,0,0,1,-26,156)" stroke="rgb(222,220,196)">
      <rect x="62.5" width="272.3701" height="451.7178" y="-104.3246" clip-path="url(#clipPath2)" stroke="none"/>
      <rect x="62.5" y="-104.3246" clip-path="url(#clipPath2)" fill="rgb(183,182,158)" width="272.3701" height="20.7578" stroke="none"/>
    </g>
    <g font-size="15px" stroke-linecap="butt" transform="matrix(1,0,0,1,-26,156)" text-rendering="geometricPrecision" font-family="sans-serif" shape-rendering="geometricPrecision" stroke-miterlimit="1.45">
      <text x="186.1514" xml:space="preserve" y="-88.7455" clip-path="url(#clipPath2)" stroke="none">Control (Main) Thread</text>
      <rect fill="none" x="62.5" width="272.3701" height="451.7178" y="-104.3246" clip-path="url(#clipPath2)"/>
    </g>
    <g fill="rgb(255,204,0)" text-rendering="geometricPrecision" shape-rendering="geometricPrecision" transform="matrix(1,0,0,1,-26,156)" stroke="rgb(255,204,0)">
      <rect x="133.75" width="166" height="39" y="-68.5668" clip-path="url(#clipPath2)" stroke="none"/>
    </g>
    <g text-rendering="geometricPrecision" stroke-miterlimit="1.45" shape-rendering="geometricPrecision" transform="matrix(1,0,0,1,-26,156)" stroke-linecap="butt">
      <rect fill="none" x="133.75" width="166" height="39" y="-68.5668" clip-path="url(#clipPath2)"/>
      <text x="190.7432" xml:space="preserve" y="-44.9066" clip-path="url(#clipPath2)" font-family="sans-serif" stroke="none">Read HW</text>
    </g>
    <g fill="rgb(255,204,0)" text-rendering="geometricPrecision" shape-rendering="geometricPrecision" transform="matrix(1,0,0,1,-26,156)" stroke="rgb(255,204,0)">
      <rect x="133.75" width="166" height="39" y="178.151" clip-path="url(#clipPath2)" stroke="none"/>
    </g>
    <g text-rendering="geometricPrecision" stroke-miterlimit="1.45" shape-rendering="geometricPrecision" transform="matrix(1,0,0,1,-26,156)" stroke-linecap="butt">
      <rect fill="none" x="133.75" width="166" height="39" y="178.151" clip-path="url(#clipPath2)"/>
      <text x="169.7256" xml:space="preserve" y="201.8112" clip-path="url(#clipPath2)" font-family="sans-serif" stroke="none">Controller Update</text>
    </g>
    <g fill="rgb(255,204,0)" text-rendering="geometricPrecision" shape-rendering="geometricPrecision" transform="matrix(1,0,0,1,-26,156)" stroke="rgb(255,204,0)">
      <rect x="133.75" width="166" height="39" y="239.9089" clip-path="url(#clipPath2)" stroke="none"/>
    </g>
    <g text-rendering="geometricPrecision" stroke-miterlimit="1.45" shape-rendering="geometricPrecision" transform="matrix(1,0,0,1,-26,156)" stroke-linecap="butt">
      <rect fill="none" x="133.75" width="166" height="39" y="239.9089" clip-path="url(#clipPath2)"/>
      <text x="191.0889" xml:space="preserve" y="263.569" clip-path="url(#clipPath2)" font-family="sans-serif" stroke="none">Write HW</text>
      <path fill="none" d="M216.75 -29.5668 L216.75 170.151" clip-path="url(#clipPath2)"/>
      <path d="M216.75 178.151 L221.75 166.151 L216.75 169.151 L211.75 166.151 Z" clip-path="url(#clipPath2)" stroke="none"/>
      <path fill="none" d="M216.75 217.151 L216.75 231.9089" clip-path="url(#clipPath2)"/>
      <path d="M216.75 239.9089 L221.75 227.9089 L216.75 230.9089 L211.75 227.9089 Z" clip-path="url(#clipPath2)" stroke="none"/>
      <path fill="none" d="M216.75 278.9088 L216.75 317.58 L93 317.58 L89.8 -49.0668 L125.75 -49.0668" clip-path="url(#clipPath2)"/>
      <path d="M133.75 -49.0668 L121.75 -54.0668 L124.75 -49.0668 L121.75 -44.0668 Z" clip-path="url(#clipPath2)" stroke="none"/>
    </g>
    <g fill="rgb(210,210,210)" text-rendering="geometricPrecision" shape-rendering="geometricPrecision" transform="matrix(1,0,0,1,-26,156) translate(4,4)" stroke="rgb(210,210,210)">
      <rect x="357.5496" width="179" height="92.5078" y="31.2404" clip-path="url(#clipPath3)" stroke="none"/>
    </g>
    <g fill="rgb(222,220,196)" text-rendering="geometricPrecision" shape-rendering="geometricPrecision" transform="matrix(1,0,0,1,-26,156)" stroke="rgb(222,220,196)">
      <rect x="357.5496" width="179" height="92.5078" y="31.2404" clip-path="url(#clipPath2)" stroke="none"/>
      <rect x="357.5496" y="31.2404" clip-path="url(#clipPath2)" fill="rgb(183,182,158)" width="179" height="20.7578" stroke="none"/>
    </g>
    <g font-size="15px" stroke-linecap="butt" transform="matrix(1,0,0,1,-26,156)" text-rendering="geometricPrecision" font-family="sans-serif" shape-rendering="geometricPrecision" stroke-miterlimit="1.45">
      <text x="381.1585" xml:space="preserve" y="46.8195" clip-path="url(#clipPath2)" stroke="none">RTDEProducer Thread</text>
      <rect fill="none" x="357.5496" width="179" height="92.5078" y="31.2404" clip-path="url(#clipPath2)"/>
    </g>
    <g fill="rgb(255,204,0)" text-rendering="geometricPrecision" shape-rendering="geometricPrecision" transform="matrix(1,0,0,1,-26,156)" stroke="rgb(255,204,0)">
      <rect x="392.5496" width="110" height="39" y="66.9982" clip-path="url(#clipPath2)" stroke="none"/>
    </g>
    <g text-rendering="geometricPrecision" stroke-miterlimit="1.45" shape-rendering="geometricPrecision" transform="matrix(1,0,0,1,-26,156)" stroke-linecap="butt">
      <rect fill="none" x="392.5496" width="110" height="39" y="66.9982" clip-path="url(#clipPath2)"/>
      <text x="408.8543" xml:space="preserve" y="90.6584" clip-path="url(#clipPath2)" font-family="sans-serif" stroke="none">Read package</text>
      <path fill="none" d="M252.2336 -29.5668 L355.8716 27.3875" clip-path="url(#clipPath2)"/>
      <path d="M362.8827 31.2404 L354.7742 21.0791 L354.9953 26.9059 L349.958 29.8429 Z" clip-path="url(#clipPath2)" stroke="none"/>
      <text x="331.6103" xml:space="preserve" y="-12.7895" clip-path="url(#clipPath2)" font-family="sans-serif" stroke="none">getLatestProduct(blocking)</text>
    </g>
    <g fill="rgb(210,210,210)" text-rendering="geometricPrecision" shape-rendering="geometricPrecision" transform="matrix(1,0,0,1,-26,156) translate(4,4)" stroke="rgb(210,210,210)">
      <rect x="575.5329" width="329.5771" height="693.2518" y="-4.5174" clip-path="url(#clipPath3)" stroke="none"/>
    </g>
    <g fill="rgb(204,255,255)" text-rendering="geometricPrecision" shape-rendering="geometricPrecision" transform="matrix(1,0,0,1,-26,156)" stroke="rgb(204,255,255)">
      <rect x="575.5329" width="329.5771" height="693.2518" y="-4.5174" clip-path="url(#clipPath2)" stroke="none"/>
      <rect x="575.5329" y="-4.5174" clip-path="url(#clipPath2)" fill="rgb(153,204,255)" width="329.5771" height="20.7578" stroke="none"/>
    </g>
    <g font-size="15px" stroke-linecap="butt" transform="matrix(1,0,0,1,-26,156)" text-rendering="geometricPrecision" font-family="sans-serif" shape-rendering="geometricPrecision" stroke-miterlimit="1.45">
      <text x="863.0831" xml:space="preserve" y="11.0617" clip-path="url(#clipPath2)" stroke="none">Robot</text>
      <rect fill="none" x="575.5329" width="329.5771" height="693.2518" y="-4.5174" clip-path="url(#clipPath2)"/>
    </g>
    <g fill="rgb(210,210,210)" text-rendering="geometricPrecision" shape-rendering="geometricPrecision" transform="matrix(1,0,0,1,-26,156) translate(4,4)" stroke="rgb(210,210,210)">
      <rect x="599.2291" width="248.3701" height="336.3273" y="31.2404" clip-path="url(#clipPath3)" stroke="none"/>
    </g>
    <g fill="rgb(222,220,196)" text-rendering="geometricPrecision" shape-rendering="geometricPrecision" transform="matrix(1,0,0,1,-26,156)" stroke="rgb(222,220,196)">
      <rect x="599.2291" width="248.3701" height="336.3273" y="31.2404" clip-path="url(#clipPath2)" stroke="none"/>
      <rect x="599.2291" y="31.2404" clip-path="url(#clipPath2)" fill="rgb(183,182,158)" width="248.3701" height="20.7578" stroke="none"/>
    </g>
    <g font-size="15px" stroke-linecap="butt" transform="matrix(1,0,0,1,-26,156)" text-rendering="geometricPrecision" font-family="sans-serif" shape-rendering="geometricPrecision" stroke-miterlimit="1.45">
      <text x="761.3927" xml:space="preserve" y="46.8195" clip-path="url(#clipPath2)" stroke="none">Main Thread</text>
      <rect fill="none" x="599.2291" width="248.3701" height="336.3273" y="31.2404" clip-path="url(#clipPath2)"/>
    </g>
    <g fill="rgb(255,204,0)" text-rendering="geometricPrecision" shape-rendering="geometricPrecision" transform="matrix(1,0,0,1,-26,156)" stroke="rgb(255,204,0)">
      <rect x="622.8493" width="209.75" height="39" y="239.9089" clip-path="url(#clipPath2)" stroke="none"/>
    </g>
    <g text-rendering="geometricPrecision" stroke-miterlimit="1.45" shape-rendering="geometricPrecision" transform="matrix(1,0,0,1,-26,156)" stroke-linecap="butt">
      <rect fill="none" x="622.8493" width="209.75" height="39" y="239.9089" clip-path="url(#clipPath2)"/>
      <text x="641.3541" xml:space="preserve" y="263.569" clip-path="url(#clipPath2)" font-family="sans-serif" stroke="none">ReverseInterface: read (timeout)</text>
    </g>
    <g fill="rgb(255,204,0)" text-rendering="geometricPrecision" shape-rendering="geometricPrecision" transform="matrix(1,0,0,1,-26,156)" stroke="rgb(255,204,0)">
      <rect x="622.8493" width="209.75" height="39" y="66.9982" clip-path="url(#clipPath2)" stroke="none"/>
    </g>
    <g text-rendering="geometricPrecision" stroke-miterlimit="1.45" shape-rendering="geometricPrecision" transform="matrix(1,0,0,1,-26,156)" stroke-linecap="butt">
      <rect fill="none" x="622.8493" width="209.75" height="39" y="66.9982" clip-path="url(#clipPath2)"/>
      <text x="661.0358" xml:space="preserve" y="90.6584" clip-path="url(#clipPath2)" font-family="sans-serif" stroke="none">RTDE: send (each cycle)</text>
    </g>
    <g fill="rgb(255,204,0)" text-rendering="geometricPrecision" shape-rendering="geometricPrecision" transform="matrix(1,0,0,1,-26,156)" stroke="rgb(255,204,0)">
      <rect x="700.8493" y="302.9089" clip-path="url(#clipPath2)" width="53.75" rx="4" ry="4" height="47.5" stroke="none"/>
    </g>
    <g text-rendering="geometricPrecision" stroke-miterlimit="1.45" shape-rendering="geometricPrecision" transform="matrix(1,0,0,1,-26,156)" stroke-linecap="butt">
      <rect x="700.8493" y="302.9089" clip-path="url(#clipPath2)" fill="none" width="53.75" rx="4" ry="4" height="47.5"/>
      <text x="710.3834" xml:space="preserve" y="324.1159" clip-path="url(#clipPath2)" font-family="sans-serif" stroke="none">Target</text>
      <text x="711.7164" xml:space="preserve" y="337.5221" clip-path="url(#clipPath2)" font-family="sans-serif" stroke="none">Buffer</text>
      <path fill="none" d="M299.75 259.4088 L614.8492 259.4088" clip-path="url(#clipPath2)"/>
      <path d="M622.8492 259.4088 L610.8492 254.4088 L613.8492 259.4088 L610.8492 264.4088 Z" clip-path="url(#clipPath2)" stroke="none"/>
      <path fill="none" d="M622.8492 86.4982 L510.5496 86.4982" clip-path="url(#clipPath2)"/>
      <path d="M502.5496 86.4982 L514.5496 91.4982 L511.5496 86.4982 L514.5496 81.4982 Z" clip-path="url(#clipPath2)" stroke="none"/>
      <path fill="none" d="M727.7242 278.9088 L727.7242 294.9237" clip-path="url(#clipPath2)"/>
      <path d="M727.7242 302.9237 L732.7242 290.9237 L727.7242 293.9237 L722.7242 290.9237 Z" clip-path="url(#clipPath2)" stroke="none"/>
    </g>
    <g fill="rgb(210,210,210)" text-rendering="geometricPrecision" shape-rendering="geometricPrecision" transform="matrix(1,0,0,1,-26,156) translate(4,4)" stroke="rgb(210,210,210)">
      <rect x="599.2291" width="286.3701" height="253.7578" y="391.9766" clip-path="url(#clipPath3)" stroke="none"/>
    </g>
    <g fill="rgb(222,220,196)" text-rendering="geometricPrecision" shape-rendering="geometricPrecision" transform="matrix(1,0,0,1,-26,156)" stroke="rgb(222,220,196)">
      <rect x="599.2291" width="286.3701" height="253.7578" y="391.9766" clip-path="url(#clipPath2)" stroke="none"/>
      <rect x="599.2291" y="391.9766" clip-path="url(#clipPath2)" fill="rgb(183,182,158)" width="286.3701" height="20.7578" stroke="none"/>
    </g>
    <g font-size="15px" stroke-linecap="butt" transform="matrix(1,0,0,1,-26,156)" text-rendering="geometricPrecision" font-family="sans-serif" shape-rendering="geometricPrecision" stroke-miterlimit="1.45">
      <text x="795.2252" xml:space="preserve" y="407.5557" clip-path="url(#clipPath2)" stroke="none">Move Thread</text>
      <rect fill="none" x="599.2291" width="286.3701" height="253.7578" y="391.9766" clip-path="url(#clipPath2)"/>
    </g>
    <g fill="url(#linearGradient1)" text-rendering="geometricPrecision" shape-rendering="geometricPrecision" transform="matrix(1,0,0,1,-26,156)" stroke="url(#linearGradient1)">
      <path d="M690.5455 427.7344 L749.5455 462.7344 L690.5455 497.7344 L631.5455 462.7344 Z" stroke="none" clip-path="url(#clipPath2)"/>
    </g>
    <g text-rendering="geometricPrecision" stroke-miterlimit="1.45" shape-rendering="geometricPrecision" transform="matrix(1,0,0,1,-26,156)" stroke-linecap="butt">
      <path fill="none" d="M690.5455 427.7344 L749.5455 462.7344 L690.5455 497.7344 L631.5455 462.7344 Z" clip-path="url(#clipPath2)"/>
      <text x="647.8541" xml:space="preserve" y="466.8945" clip-path="url(#clipPath2)" font-family="sans-serif" stroke="none">Got new target?</text>
    </g>
    <g fill="url(#linearGradient2)" text-rendering="geometricPrecision" shape-rendering="geometricPrecision" transform="matrix(1,0,0,1,-26,156)" stroke="url(#linearGradient2)">
      <path d="M779.5455 442.7344 L859.5455 442.7344 L859.5455 482.7344 L779.5455 482.7344 Z" stroke="none" clip-path="url(#clipPath2)"/>
    </g>
    <g text-rendering="geometricPrecision" stroke-miterlimit="1.45" shape-rendering="geometricPrecision" transform="matrix(1,0,0,1,-26,156)" stroke-linecap="butt">
      <path fill="none" d="M779.5455 442.7344 L859.5455 442.7344 L859.5455 482.7344 L779.5455 482.7344 Z" clip-path="url(#clipPath2)"/>
      <text x="804.8737" xml:space="preserve" y="466.8945" clip-path="url(#clipPath2)" font-family="sans-serif" stroke="none">Move</text>
    </g>
    <g fill="url(#linearGradient3)" text-rendering="geometricPrecision" shape-rendering="geometricPrecision" transform="matrix(1,0,0,1,-26,156)" stroke="url(#linearGradient3)">
      <path d="M650.5455 552.9011 L730.5455 552.9011 L730.5455 592.9011 L650.5455 592.9011 Z" stroke="none" clip-path="url(#clipPath2)"/>
    </g>
    <g text-rendering="geometricPrecision" stroke-miterlimit="1.45" shape-rendering="geometricPrecision" transform="matrix(1,0,0,1,-26,156)" stroke-linecap="butt">
      <path fill="none" d="M650.5455 552.9011 L730.5455 552.9011 L730.5455 592.9011 L650.5455 592.9011 Z" clip-path="url(#clipPath2)"/>
      <text x="660.194" xml:space="preserve" y="577.0612" clip-path="url(#clipPath2)" font-family="sans-serif" stroke="none">Extrapolate</text>
    </g>
    <g text-rendering="geometricPrecision" stroke-miterlimit="1.45" shape-rendering="geometricPrecision" transform="matrix(1,0,0,1,-26,156)" stroke-linecap="butt">
      <path fill="none" d="M721.2343 350.4123 L700.8882 424.88" clip-path="url(#clipPath2)"/>
      <path d="M698.7797 432.5972 L706.7656 422.3393 L701.1517 423.9154 L697.1193 419.7036 Z" clip-path="url(#clipPath2)" stroke="none"/>
      <path fill="none" d="M749.5341 462.7344 L771.5146 462.7344" clip-path="url(#clipPath2)"/>
      <path d="M779.5146 462.7344 L767.5146 457.7344 L770.5146 462.7344 L767.5146 467.7344 Z" clip-path="url(#clipPath2)" stroke="none"/>
      <text x="755.7086" xml:space="preserve" y="436.8945" clip-path="url(#clipPath2)" font-family="sans-serif" stroke="none">yes</text>
      <path fill="none" d="M819.5455 482.7043 L819.5455 633.5 L617.1855 633.5 L617.1855 462.7344 L623.5518 462.7344" clip-path="url(#clipPath2)"/>
      <path d="M631.5518 462.7344 L619.5518 457.7344 L622.5518 462.7344 L619.5518 467.7344 Z" clip-path="url(#clipPath2)" stroke="none"/>
      <path fill="none" d="M690.5455 497.7263 L690.5455 544.8961" clip-path="url(#clipPath2)"/>
      <path d="M690.5455 552.8961 L695.5455 540.8961 L690.5455 543.8961 L685.5455 540.8961 Z" clip-path="url(#clipPath2)" stroke="none"/>
      <text x="653.8717" xml:space="preserve" y="529.4778" clip-path="url(#clipPath2)" font-family="sans-serif" stroke="none">no</text>
      <path fill="none" d="M713.9457 552.9172 L790.027 487.9434" clip-path="url(#clipPath2)"/>
      <path d="M796.1104 482.7481 L783.7382 486.739 L789.2665 488.5928 L790.2324 494.3433 Z" clip-path="url(#clipPath2)" stroke="none"/>
    </g>
  </g>
</svg>
